<svg xmlns="http://www.w3.org/2000/svg" width="40" height="40" viewBox="0 0 40 40" fill="none">
  <rect width="40" height="40" fill="#E5E7EB"/>
  <path d="M20 15C18.3431 15 17 16.3431 17 18C17 19.6569 18.3431 21 20 21C21.6569 21 23 19.6569 23 18C23 16.3431 21.6569 15 20 15Z" fill="#9CA3AF"/>
  <path fill-rule="evenodd" clip-rule="evenodd" d="M14 10C11.7909 10 10 11.7909 10 14V26C10 28.2091 11.7909 30 14 30H26C28.2091 30 30 28.2091 30 26V14C30 11.7909 28.2091 10 26 10H14ZM26 12H14C12.8954 12 12 12.8954 12 14V22.3414C12.4861 21.5329 13.2017 20.8581 14.0527 20.3992C15.4446 19.6365 17.1718 19.4141 18.7213 19.7112C19.9161 19.9454 20.9576 20.5213 21.7366 21.2124C22.5157 21.9035 23.0593 22.7037 23.3888 23.4249C23.5536 23.7855 23.6646 24.1241 23.7325 24.4206C23.7664 24.5688 23.7901 24.7051 23.8055 24.8249C23.8132 24.8848 23.8187 24.9385 23.8225 24.9849C23.8244 25.0081 23.8258 25.0291 23.8269 25.0478L23.828 25.0686L23.8284 25.0763L23.8285 25.0794C23.8285 25.0804 23.8286 25.0814 24 25C24.1714 24.9186 24.1715 24.9177 24.1715 24.9167L24.1716 24.9133L24.1717 24.9051L24.1719 24.8834C24.172 24.8642 24.1721 24.8427 24.172 24.819C24.1719 24.7715 24.1714 24.7165 24.1702 24.6553C24.1679 24.5328 24.1628 24.3934 24.1531 24.2419C24.1337 23.9389 24.0967 23.5636 24.0239 23.1626C23.8782 22.3607 23.5907 21.4088 23.0759 20.4751C22.5611 19.5414 21.8218 18.6527 20.8884 17.9189C19.955 17.185 18.8339 16.6796 17.5287 16.4263C15.5782 16.0728 13.3054 16.3635 11.4723 17.3508C10.5556 17.8446 9.77182 18.5168 9.18385 19.3165C9.06384 19.4878 9 19.7021 9 19.9219V26C9 28.7614 11.2386 31 14 31H26C28.7614 31 31 28.7614 31 26V14C31 11.2386 28.7614 9 26 9H14C11.2386 9 9 11.2386 9 14V19.9219C9 19.7021 9.06384 19.4878 9.18385 19.3165C9.77182 18.5168 10.5556 17.8446 11.4723 17.3508C13.3054 16.3635 15.5782 16.0728 17.5287 16.4263C18.8339 16.6796 19.955 17.185 20.8884 17.9189C21.8218 18.6527 22.5611 19.5414 23.0759 20.4751C23.5907 21.4088 23.8782 22.3607 24.0239 23.1626C24.0967 23.5636 24.1337 23.9389 24.1531 24.2419C24.1628 24.3934 24.1679 24.5328 24.1702 24.6553C24.1714 24.7165 24.1719 24.7715 24.172 24.819C24.1721 24.8427 24.172 24.8642 24.1719 24.8834L24.1717 24.9051L24.1716 24.9133L24.1715 24.9167C24.1715 24.9177 24.1714 24.9186 24 25C23.8286 25.0814 23.8285 25.0804 23.8285 25.0794L23.8284 25.0763L23.828 25.0686L23.8269 25.0478C23.8258 25.0291 23.8244 25.0081 23.8225 24.9849C23.8187 24.9385 23.8132 24.8848 23.8055 24.8249C23.7901 24.7051 23.7664 24.5688 23.7325 24.4206C23.6646 24.1241 23.5536 23.7855 23.3888 23.4249C23.0593 22.7037 22.5157 21.9035 21.7366 21.2124C20.9576 20.5213 19.9161 19.9454 18.7213 19.7112C17.1718 19.4141 15.4446 19.6365 14.0527 20.3992C13.2017 20.8581 12.4861 21.5329 12 22.3414V14C12 12.8954 12.8954 12 14 12H26C27.1046 12 28 12.8954 28 14V26C28 27.1046 27.1046 28 26 28H14C12.8954 28 12 27.1046 12 26V22.3414C12.4861 21.5329 13.2017 20.8581 14.0527 20.3992C15.4446 19.6365 17.1718 19.4141 18.7213 19.7112C19.9161 19.9454 20.9576 20.5213 21.7366 21.2124C22.5157 21.9035 23.0593 22.7037 23.3888 23.4249C23.5536 23.7855 23.6646 24.1241 23.7325 24.4206C23.7664 24.5688 23.7901 24.7051 23.8055 24.8249C23.8132 24.8848 23.8187 24.9385 23.8225 24.9849C23.8244 25.0081 23.8258 25.0291 23.8269 25.0478L23.828 25.0686L23.8284 25.0763L23.8285 25.0794C23.8285 25.0804 23.8286 25.0814 24 25V26C24 27.1046 23.1046 28 22 28H18C16.8954 28 16 27.1046 16 26V25C16.8954 25 17 24.1046 17 23V22C17 20.8954 17.8954 20 19 20H21C22.1046 20 23 20.8954 23 22V23C23 24.1046 23.1046 25 24 25C24.1714 24.9186 24.1715 24.9177 24.1715 24.9167L24.1716 24.9133L24.1717 24.9051L24.1719 24.8834C24.172 24.8642 24.1721 24.8427 24.172 24.819C24.1719 24.7715 24.1714 24.7165 24.1702 24.6553C24.1679 24.5328 24.1628 24.3934 24.1531 24.2419C24.1337 23.9389 24.0967 23.5636 24.0239 23.1626C23.8782 22.3607 23.5907 21.4088 23.0759 20.4751C22.5611 19.5414 21.8218 18.6527 20.8884 17.9189C19.955 17.185 18.8339 16.6796 17.5287 16.4263C15.5782 16.0728 13.3054 16.3635 11.4723 17.3508C10.5556 17.8446 9.77182 18.5168 9.18385 19.3165C9.06384 19.4878 9 19.7021 9 19.9219V26C9 28.7614 11.2386 31 14 31H26C28.7614 31 31 28.7614 31 26V14C31 11.2386 28.7614 9 26 9H14C11.2386 9 9 11.2386 9 14V19.9219C9 19.7021 9.06384 19.4878 9.18385 19.3165C9.77182 18.5168 10.5556 17.8446 11.4723 17.3508C13.3054 16.3635 15.5782 16.0728 17.5287 16.4263C18.8339 16.6796 19.955 17.185 20.8884 17.9189C21.8218 18.6527 22.5611 19.5414 23.0759 20.4751C23.5907 21.4088 23.8782 22.3607 24.0239 23.1626C24.0967 23.5636 24.1337 23.9389 24.1531 24.2419C24.1628 24.3934 24.1679 24.5328 24.1702 24.6553C24.1714 24.7165 24.1719 24.7715 24.172 24.819C24.1721 24.8427 24.172 24.8642 24.1719 24.8834L24.1717 24.9051L24.1716 24.9133L24.1715 24.9167C24.1715 24.9177 24.1714 24.9186 24 25C23.8286 25.0814 23.8285 25.0804 23.8285 25.0794L23.8284 25.0763L23.828 25.0686L23.8269 25.0478C23.8258 25.0291 23.8244 25.0081 23.8225 24.9849C23.8187 24.9385 23.8132 24.8848 23.8055 24.8249C23.7901 24.7051 23.7664 24.5688 23.7325 24.4206C23.6646 24.1241 23.5536 23.7855 23.3888 23.4249C23.0593 22.7037 22.5157 21.9035 21.7366 21.2124C20.9576 20.5213 19.9161 19.9454 18.7213 19.7112C17.1718 19.4141 15.4446 19.6365 14.0527 20.3992C13.2017 20.8581 12.4861 21.5329 12 22.3414V26C12 27.1046 12.8954 28 14 28H26C27.1046 28 28 27.1046 28 26V14C28 12.8954 27.1046 12 26 12H14C12.8954 12 12 12.8954 12 14V22.3414C12.4861 21.5329 13.2017 20.8581 14.0527 20.3992C15.4446 19.6365 17.1718 19.4141 18.7213 19.7112C19.9161 19.9454 20.9576 20.5213 21.7366 21.2124C22.5157 21.9035 23.0593 22.7037 23.3888 23.4249C23.5536 23.7855 23.6646 24.1241 23.7325 24.4206C23.7664 24.5688 23.7901 24.7051 23.8055 24.8249C23.8132 24.8848 23.8187 24.9385 23.8225 24.9849C23.8244 25.0081 23.8258 25.0291 23.8269 25.0478L23.828 25.0686L23.8284 25.0763L23.8285 25.0794C23.8285 25.0804 23.8286 25.0814 24 25V26C24 27.1046 23.1046 28 22 28H18C16.8954 28 16 27.1046 16 26V25C16.8954 25 17 24.1046 17 23V22C17 20.8954 17.8954 20 19 20H21C22.1046 20 23 20.8954 23 22V23C23 24.1046 23.1046 25 24 25Z" fill="#9CA3AF"/>
</svg>